<svg width="397" height="311" viewBox="0 0 397 311" fill="none" xmlns="http://www.w3.org/2000/svg">
<path d="M64.6 237.9c2.4-2.4 5.7-3.8 9.2-3.8h317.4c5.8 0 8.7 7 4.6 11.1l-62.7 62.7c-2.4 2.4-5.7 3.8-9.2 3.8H6.5c-5.8 0-8.7-7-4.6-11.1l62.7-62.7z" fill="url(#gradient1)"/>
<path d="M64.6 3.8C67.1 1.4 70.4 0 73.8 0h317.4c5.8 0 8.7 7 4.6 11.1l-62.7 62.7c-2.4 2.4-5.7 3.8-9.2 3.8H6.5c-5.8 0-8.7-7-4.6-11.1L64.6 3.8z" fill="url(#gradient2)"/>
<path d="M333.1 120.1c-2.4-2.4-5.7-3.8-9.2-3.8H6.5c-5.8 0-8.7 7-4.6 11.1l62.7 62.7c2.4 2.4 5.7 3.8 9.2 3.8h317.4c5.8 0 8.7-7 4.6-11.1l-62.7-62.7z" fill="url(#gradient3)"/>
<defs>
<linearGradient id="gradient1" x1="360.8799" y1="351.4553" x2="141.2138" y2="-37.6817" gradientUnits="userSpaceOnUse">
<stop offset="0" stop-color="#00FFA3"/>
<stop offset="1" stop-color="#DC1FFF"/>
</linearGradient>
<linearGradient id="gradient2" x1="264.8303" y1="401.6014" x2="45.1642" y2="12.4644" gradientUnits="userSpaceOnUse">
<stop offset="0" stop-color="#00FFA3"/>
<stop offset="1" stop-color="#DC1FFF"/>
</linearGradient>
<linearGradient id="gradient3" x1="312.5483" y1="376.6867" x2="92.8822" y2="-12.4503" gradientUnits="userSpaceOnUse">
<stop offset="0" stop-color="#00FFA3"/>
<stop offset="1" stop-color="#DC1FFF"/>
</linearGradient>
</defs>
</svg>
